<svg viewBox="0 0 566 161" fill="#000000" xmlns="http://www.w3.org/2000/svg">
<path d="M522.708 159.83V50.7386H561.913V159.83H522.708ZM542.31 39.375C537.007 39.375 532.462 37.6231 528.674 34.1193C524.886 30.6155 522.992 26.4015 522.992 21.4773C522.992 16.553 524.886 12.339 528.674 8.8352C532.462 5.33142 537.007 3.57953 542.31 3.57953C547.661 3.57953 552.206 5.33142 555.947 8.8352C559.734 12.339 561.628 16.553 561.628 21.4773C561.628 26.4015 559.734 30.6155 555.947 34.1193C552.206 37.6231 547.661 39.375 542.31 39.375Z"/>
<path d="M542.31 42.9545C535.947 42.9545 530.492 40.8523 525.947 36.6477C521.401 32.4432 519.128 27.3864 519.128 21.4773C519.128 15.5682 521.401 10.5114 525.947 6.30681C530.492 2.10227 535.947 0 542.31 0C548.731 0 554.185 2.10227 558.674 6.30681C563.219 10.5114 565.492 15.5682 565.492 21.4773C565.492 27.3864 563.219 32.4432 558.674 36.6477C554.185 40.8523 548.731 42.9545 542.31 42.9545Z"/>
<path d="M471.047 150.803C459.576 152.825 449.305 152.377 440.232 149.457C431.197 146.483 423.714 141.263 417.783 133.799C411.889 126.28 407.923 116.739 405.884 105.175C403.927 94.0772 404.455 83.9837 407.468 74.8944C410.481 65.8051 415.661 58.2329 423.007 52.1778C430.353 46.1226 439.575 42.1167 450.672 40.1598C458.786 38.7292 466.352 38.6932 473.371 40.0519C480.389 41.4106 486.654 44.0802 492.163 48.0608C497.665 51.9948 502.275 57.1437 505.993 63.5076C509.712 69.8715 512.323 77.32 513.828 85.8531L515.406 94.8059L419.444 111.727L415.694 90.4638L476.126 79.8081C475.537 76.7388 474.267 74.1741 472.317 72.114C470.406 69.999 468.053 68.5148 465.258 67.6614C462.501 66.7531 459.514 66.5827 456.297 67.15C453.173 67.7009 450.424 68.8826 448.052 70.6953C445.671 72.4614 443.893 74.6499 442.719 77.2609C441.591 79.8637 441.256 82.7354 441.713 85.876L445.759 108.818C446.367 112.268 447.633 115.218 449.555 117.668C451.477 120.117 453.926 121.873 456.902 122.935C459.878 123.997 463.278 124.191 467.101 123.517C469.759 123.048 472.118 122.247 474.178 121.115C476.285 119.974 478.007 118.565 479.346 116.886C480.677 115.161 481.538 113.23 481.931 111.094L517.182 104.878C517.286 112.552 515.561 119.539 512.008 125.839C508.447 132.092 503.203 137.392 496.277 141.738C489.389 146.03 480.979 149.051 471.047 150.803Z"/>
<path d="M354.368 140.803C342.897 142.825 332.625 142.377 323.552 139.457C314.518 136.483 307.035 131.263 301.103 123.799C295.21 116.28 291.243 106.739 289.204 95.175C287.248 84.0772 287.776 73.9837 290.788 64.8944C293.801 55.8051 298.981 48.2329 306.327 42.1778C313.673 36.1226 322.895 32.1167 333.993 30.1598C342.106 28.7292 349.672 28.6932 356.691 30.0519C363.71 31.4106 369.974 34.0802 375.484 38.0608C380.985 41.9948 385.595 47.1437 389.314 53.5076C393.032 59.8715 395.644 67.32 397.148 75.8531L398.727 84.8059L302.764 101.727L299.015 80.4638L359.446 69.8081C358.857 66.7388 357.587 64.1741 355.637 62.114C353.726 59.999 351.373 58.5148 348.578 57.6614C345.822 56.7531 342.835 56.5827 339.617 57.15C336.493 57.7009 333.745 58.8826 331.372 60.6953C328.991 62.4614 327.213 64.6499 326.039 67.2609C324.911 69.8637 324.576 72.7354 325.034 75.876L329.079 98.8175C329.687 102.268 330.953 105.218 332.875 107.668C334.798 110.117 337.247 111.873 340.223 112.935C343.198 113.997 346.598 114.191 350.422 113.517C353.079 113.048 355.438 112.247 357.498 111.115C359.605 109.974 361.328 108.565 362.667 106.886C363.997 105.161 364.859 103.23 365.251 101.094L400.503 94.8778C400.606 102.552 398.881 109.539 395.328 115.839C391.767 122.092 386.524 127.392 379.597 131.738C372.709 136.03 364.3 139.051 354.368 140.803Z"/>
<path d="M244.204 102.143V40.7795H283.409V149.87H246.193V129.132H245.057C242.689 136.092 238.546 141.537 232.628 145.467C226.709 149.35 219.678 151.291 211.534 151.291C203.911 151.291 197.235 149.539 191.506 146.035C185.824 142.531 181.397 137.702 178.224 131.547C175.099 125.391 173.513 118.336 173.466 110.382V40.7795H212.67V102.143C212.718 107.541 214.091 111.779 216.79 114.856C219.536 117.934 223.371 119.473 228.295 119.473C231.562 119.473 234.38 118.786 236.747 117.413C239.162 115.993 241.008 114.004 242.287 111.447C243.613 108.843 244.252 105.742 244.204 102.143Z"/>
<path d="M128.286 160.03V50.9386H167.491V160.03H128.286ZM147.888 39.575C142.585 39.575 138.04 37.8231 134.252 34.3193C130.464 30.8155 128.57 26.6015 128.57 21.6773C128.57 16.753 130.464 12.539 134.252 9.03522C138.04 5.53143 142.585 3.77954 147.888 3.77954C153.239 3.77954 157.784 5.53143 161.525 9.03522C165.313 12.539 167.207 16.753 167.207 21.6773C167.207 26.6015 165.313 30.8155 161.525 34.3193C157.784 37.8231 153.239 39.575 147.888 39.575Z"/>
<path d="M147.888 43.1545C141.525 43.1545 136.07 41.0523 131.525 36.8477C126.979 32.6432 124.707 27.5864 124.707 21.6773C124.707 15.7682 126.979 10.7114 131.525 6.50682C136.07 2.30228 141.525 0.200012 147.888 0.200012C154.309 0.200012 159.763 2.30228 164.252 6.50682C168.797 10.7114 171.07 15.7682 171.07 21.6773C171.07 27.5864 168.797 32.6432 164.252 36.8477C159.763 41.0523 154.309 43.1545 147.888 43.1545Z"/>
<path d="M75.2106 150.753C63.5533 152.809 53.1677 152.26 44.0538 149.107C34.9316 145.908 27.4238 140.549 21.5305 133.03C15.629 125.464 11.7081 116.179 9.76771 105.175C7.82732 94.1705 8.34026 84.1277 11.3065 75.0466C14.2646 65.9189 19.4866 58.3152 26.9726 52.2354C34.4504 46.109 44.0179 42.018 55.6752 39.9625C67.3325 37.907 77.7222 38.479 86.8444 41.6784C95.9584 44.8311 103.466 50.1903 109.368 57.7558C115.261 65.2747 119.178 74.5364 121.118 85.5409C123.059 96.5454 122.55 106.611 119.592 115.739C116.625 124.82 111.403 132.424 103.926 138.55C96.4396 144.63 86.8679 148.698 75.2106 150.753ZM70.4586 122.167C73.7226 121.591 76.3504 119.998 78.3421 117.387C80.3338 114.776 81.6247 111.328 82.215 107.041C82.8053 102.754 82.6072 97.8124 81.6205 92.2169C80.6257 86.5748 79.1219 81.8638 77.1092 78.0839C75.0883 74.2574 72.6955 71.458 69.931 69.6857C67.1665 67.9135 64.1522 67.3151 60.8882 67.8907C57.4376 68.4991 54.6699 70.117 52.585 72.7443C50.5001 75.3716 49.1624 78.8288 48.5721 83.1157C47.9736 87.3561 48.1718 92.2973 49.1666 97.9394C50.1533 103.535 51.6571 108.246 53.678 112.072C55.6989 115.899 58.1383 118.69 60.9961 120.446C63.8538 122.202 67.008 122.775 70.4586 122.167Z"/>
</svg>
